# xmcd CD database file
#
# Track frame offsets:
#	150
#	93527
#	119095
#	164802
#
# Disc length: 4261 seconds
#
# Revision: 1
# Processed by: cddbd v1.5.2PL0 Copyright (c) Steve Scherf et al.
# Submitted via: CDex 1.51
#
DISCID=3810a304
DTITLE=Matthew Shipp Quartet - Points
DYEAR=1990
DGENRE=Jazz
TTITLE0=Points Number Two
TTITLE1=Afro Sonic
TTITLE2=Piano Pyramid
TTITLE3=Points Number One
EXTD=YEAR: 1990
EXTT0=
EXTT1=
EXTT2=
EXTT3=
PLAYORDER=
